# AST/ASF file generated using VICON BodyLanguage
# -----------------------------------------------
:version 1.10
:name VICON
:units
  mass 1.0
  length 0.45
  angle deg
:documentation
   .ast/.asf automatically generated from VICON data using
   VICON BodyBuilder and BodyLanguage model FoxedUp or BRILLIANT.MOD
:root
   order TX TY TZ RX RY RZ
   axis XYZ
   position 0 0 0  
   orientation 0 0 0 
:bonedata
  begin
     id 1 
     name lhipjoint
     direction 0.660183 -0.676772 0.325788 
     length 2.75133 
     axis 0 0 0  XYZ
  end
  begin
     id 2 
     name lfemur
     direction 0.34202 -0.939693 0  
     length 7.70317  
     axis 0 0 20  XYZ
    dof rx ry rz
    limits (-160.0 20.0)
           (-70.0 70.0)
           (-60.0 70.0)
  end
  begin
     id 3 
     name ltibia
     direction 0.342105 -0.939662 0   
     length 7.18701   
     axis 0 0 20   XYZ
    dof rx
    limits (-10.0 170.0)
  end
  begin
     id 4 
     name lfoot
     direction 0.14163 -0.389126 0.910232   
     length 2.41719   
     axis -90 7.62852e-016 20   XYZ
    dof rx rz
    limits (-45.0 90.0)
           (-70.0 20.0)
  end
  begin
     id 5 
     name ltoes
     direction 1.53533e-011 -4.21926e-011 1   
     length 1.18611   
     axis -90 7.62852e-016 20   XYZ
    dof rx
    limits (-90.0 20.0)
  end
  begin
     id 6 
     name rhipjoint
     direction -0.6658 -0.67229 0.323631   
     length 2.76968  
     axis 0 0 0  XYZ 
  end
  begin
     id 7 
     name rfemur
     direction -0.34202 -0.939693 0   
     length 7.92547   
     axis 0 0 -20   XYZ
    dof rx ry rz
    limits (-160.0 20.0)
           (-70.0 70.0)
           (-70.0 60.0)
  end
  begin
     id 8 
     name rtibia
     direction -0.342022 -0.939692 0   
     length 7.22641   
     axis 0 0 -20   XYZ
    dof rx
    limits (-10.0 170.0)
 end
 begin
     id 9 
     name rfoot
     direction -0.105675 -0.29034 0.951071   
     length 2.48149  
     axis -90 -7.62852e-016 -20   XYZ
    dof rx rz
    limits (-45.0 90.0)
           (-20.0 70.0)
  end
  begin
     id 10 
     name rtoes
     direction -1.5349e-011 -4.21859e-011 1   
     length 1.23343   
     axis -90 -7.62852e-016 -20   XYZ
    dof rx
    limits (-90.0 20.0)
  end
  begin
     id 11 
     name lowerback
     direction 0.0104173 0.993624 -0.112266   
     length 2.00527   
     axis 0 0 0   XYZ
    dof rx ry rz
    limits (-20.0 45.0)
           (-30.0 30.0)
           (-30.0 30.0)
  end
  begin
     id 12 
     name upperback
     direction 0.00733149 0.999856 -0.0152913   
     length 2.01385   
     axis 0 0 0   XYZ
    dof rx ry rz
    limits (-20.0 45.0)
           (-30.0 30.0)
           (-30.0 30.0)
  end
  begin
     id 13 
     name thorax
     direction 0.0026304 0.999318 0.036841   
     length 2.03734   
     axis 0 0 0   XYZ
    dof rx ry rz
    limits (-20.0 45.0)
           (-30.0 30.0)
           (-30.0 30.0)
  end
  begin
     id 14 
     name lowerneck
     direction 0.0293154 0.998757 0.0403082   
     length 1.65303   
     axis 0 0 0   XYZ
    dof rx ry rz
    limits (-20.0 45.0)
           (-30.0 30.0)
           (-30.0 30.0)
  end
  begin
     id 15 
     name upperneck
     direction -0.0376619 0.998184 -0.0470083   
     length 1.60926   
     axis 0 0 0   XYZ
    dof rx ry rz
    limits (-20.0 45.0)
           (-30.0 30.0)
           (-30.0 30.0)
  end
  begin
     id 16
     name head
     direction -0.0170133 0.999635 -0.0209778  
     length 1.73625  
     axis 0 0 0   XYZ
    dof rx ry rz
    limits (-20.0 45.0)
           (-30.0 30.0)
           (-30.0 30.0)
  end
  begin
     id 17 
     name lclavicle
     direction 0.919857 0.39181 -0.0186333  
     length 3.75313  
     axis 0 0 0   XYZ
    dof ry rz
    limits (-20.0 10.0)
           (0.0 20.0)
  end
  begin
     id 18 
     name lhumerus
     direction 1 -4.48988e-011 1.44029e-027   
     length 5.49313   
     axis 180 -30 -90   XYZ
    dof rx ry rz
    limits (-60.0 90.0)
           (-90.0 90.0)
           (-90.0 90.0)
  end
  begin
     id 19
     name lradius
     direction 1 -4.48924e-011 7.46281e-027   
     length 3.29037   
     axis 180 -30 -90   XYZ
    dof rx
    limits (-10.0 170.0)
  end
  begin
     id 20
     name lwrist
     direction 1 -4.48955e-011 2.19879e-026   
     length 1.64519   
     axis -1.34358e-014 90 90   XYZ
    dof ry
    limits (-180.0 0.0)
 end
  begin
     id 21 
     name lhand
     direction 1 -4.48978e-011 4.39747e-026   
     length 0.729656   
     axis -2.80598e-014 90 90   XYZ
    dof rx rz
    limits (-90.0 90.0)
           (-45.0 45.0)
  end
  begin
     id 22 
     name lfingers
     direction 1 -4.49071e-011 8.79411e-026   
     length 0.588268   
     axis -5.61193e-014 90 90   XYZ
    dof rx
    limits (0.0 90.0)
  end
  begin
     id 23
     name lthumb
     direction 0.707107 -6.34817e-011 0.707107   
     length 0.844638   
     axis -90 45 -9.86923e-015   XYZ
    dof rx rz
    limits (-45.0 45.0)
           (-45.0 45.0)
  end
  begin
     id 24 
     name rclavicle
     direction -0.919898 0.388279 0.0550233   
     length 3.7171  
     axis 0 0 0   XYZ 
    dof ry rz
    limits (-10.0 20.0)
           (-20.0 0.0)
  end
  begin
     id 25 
     name rhumerus
     direction -1 -4.48968e-011 9.98372e-028  
     length 5.23684   
     axis 180 30 90   XYZ
    dof rx ry rz
    limits (-90.0 60.0)
           (-90.0 90.0)
           (-90.0 90.0)
  end
  begin
     id 26 
     name rradius
     direction -1 -4.48956e-011 1.01023e-026   
     length 3.38251   
     axis 180 30 90   XYZ
    dof rx
    limits (-10.0 170.0)
  end
  begin
     id 27 
     name rwrist
     direction -1 -4.4892e-011 2.19886e-026   
     length 1.69126   
     axis -1.34358e-014 -90 -90   XYZ
    dof ry
    limits (-180.0 0.0)
  end
  begin
     id 28
     name rhand
     direction -1 -4.49024e-011 4.39727e-026   
     length 0.691454   
     axis -2.80598e-014 -90 -90   XYZ
    dof rx rz
    limits (-90.0 90.0)
           (-45.0 45.0)
  end
  begin
     id 29
     name rfingers
     direction -1 -4.49097e-011 8.79388e-026   
     length 0.557468   
     axis -5.61193e-014 -90 -90   XYZ
    dof rx
    limits (0.0 90.0)
  end
  begin
     id 30
     name rthumb
     direction -0.707107 -6.34938e-011 0.707107   
     length 0.800416   
     axis -90 -45 9.86923e-015   XYZ
    dof rx rz
    limits (-45.0 45.0)
           (-45.0 45.0)
  end
:hierarchy
  begin
    root lhipjoint rhipjoint lowerback
    lhipjoint lfemur
    lfemur ltibia
    ltibia lfoot
    lfoot ltoes
    rhipjoint rfemur
    rfemur rtibia
    rtibia rfoot
    rfoot rtoes
    lowerback upperback
    upperback thorax
    thorax lowerneck lclavicle rclavicle
    lowerneck upperneck
    upperneck head
    lclavicle lhumerus
    lhumerus lradius
    lradius lwrist
    lwrist lhand lthumb
    lhand lfingers
    rclavicle rhumerus
    rhumerus rradius
    rradius rwrist
    rwrist rhand rthumb
    rhand rfingers
  end

#!OML:ASF H:\BabyWalks\Project 1\Capture day 1\Session 1\baby.ASF
:FULLY-SPECIFIED
:DEGREES
213
root -32.155 17.857 -4.65979 -12.7806 71.4827 -24.2694
lowerback 17.1318 -0.0139671 -4.1119
upperback 5.24646 -0.359174 2.36219
thorax -3.92601 -0.0950765 4.91497
lowerneck 0.0924163 4.84952 3.06944
upperneck 3.19966 6.56585 -4.15112
head 1.23782 3.26727 -1.73781
rclavicle 9.93923e-015 -5.56597e-015
rhumerus -38.2449 14.2442 -81.7552
rradius 45.3168
rwrist -0.741526
rhand -8.95799 -15.0383
rfingers 7.12502
rthumb 16.9869 -44.3156
lclavicle 9.93923e-015 -5.56597e-015
lhumerus -39.7267 3.19209 77.1819
lradius 56.3982
lwrist 3.52332
lhand -1.12601 10.8749
lfingers 7.12502
lthumb 24.5114 39.3262
rfemur -18.675 -6.0591 22.3759
rtibia 42.3285
rfoot -18.4418 1.13205
rtoes -18.3859
lfemur -11.1248 2.46123 -16.7589
ltibia 26.6
lfoot -25.1837 10.9752
ltoes -1.09319
214
root -32.0632 17.8536 -4.6571 -12.6035 71.3672 -24.2135
lowerback 17.1693 -0.112007 -4.17651
upperback 5.22049 -0.496848 2.4365
thorax -3.95569 -0.162324 5.06063
lowerneck 0.0985559 4.91918 3.0581
upperneck 3.13316 6.65862 -4.21447
head 1.22157 3.31299 -1.75538
rclavicle 2.3059e-014 1.59028e-015
rhumerus -38.2646 14.3039 -81.6945
rradius 45.2934
rwrist -0.726495
rhand -8.94097 -15.0119
rfingers 7.12502
rthumb 17.0033 -44.2877
lclavicle 2.3059e-014 1.59028e-015
lhumerus -39.6798 3.28881 77.0756
lradius 56.5716
lwrist 3.57225
lhand -1.21894 10.8882
lfingers 7.12502
lthumb 24.4223 39.3516
rfemur -19.5857 -5.672 22.5723
rtibia 42.0787
rfoot -18.5685 1.25828
rtoes -18.3628
lfemur -10.7698 2.4517 -16.8009
ltibia 26.3647
lfoot -25.3277 10.9359
ltoes -1.02807
215
root -31.971 17.8504 -4.65275 -12.4082 71.2677 -24.1447
lowerback 17.2072 -0.209534 -4.24844
upperback 5.19551 -0.635163 2.50809
thorax -3.98355 -0.229858 5.20795
lowerneck 0.103212 4.98154 3.03852
upperneck 3.05814 6.74096 -4.26543
head 1.20165 3.35361 -1.7678
rclavicle 5.64548e-014 4.77083e-015
rhumerus -38.2868 14.3597 -81.6405
rradius 45.257
rwrist -0.689101
rhand -8.92386 -14.985
rfingers 7.12502
rthumb 17.0197 -44.2594
lclavicle 5.64548e-014 4.77083e-015
lhumerus -39.6378 3.39534 76.9605
lradius 56.7724
lwrist 3.62535
lhand -1.29897 10.9097
lfingers 7.12502
lthumb 24.3456 39.3834
rfemur -20.4872 -5.26055 22.7673
rtibia 41.7508
rfoot -18.6786 1.37944
rtoes -18.3012
lfemur -10.41 2.48837 -16.8477
ltibia 26.1119
lfoot -25.444 10.8402
ltoes -1.01104
216
root -31.878 17.8477 -4.64649 -12.195 71.1909 -24.0599
lowerback 17.2493 -0.307462 -4.3314
upperback 5.17107 -0.776127 2.57588
thorax -4.01181 -0.298579 5.3584
lowerneck 0.105039 5.03633 3.01857
upperneck 2.97694 6.81268 -4.31002
head 1.17959 3.38905 -1.77831
rclavicle 9.93923e-015 4.77083e-015
rhumerus -38.3175 14.4112 -81.5963
rradius 45.2142
rwrist -0.62608
rhand -8.9041 -14.9606
rfingers 7.12502
rthumb 17.0388 -44.2333
lclavicle 9.93923e-015 4.77083e-015
lhumerus -39.603 3.5076 76.8359
lradius 57
lwrist 3.68048
lhand -1.36298 10.9576
lfingers 7.12502
lthumb 24.2842 39.4395
rfemur -21.3726 -4.83365 22.9565
rtibia 41.3477
rfoot -18.7812 1.48386
rtoes -18.2195
lfemur -10.0398 2.58082 -16.9011
ltibia 25.8406
lfoot -25.5381 10.6718
ltoes -1.0368
217
root -31.7845 17.8458 -4.63802 -11.9763 71.1427 -23.9695
lowerback 17.2939 -0.406501 -4.42564
upperback 5.14977 -0.920441 2.64164
thorax -4.03656 -0.36896 5.51411
lowerneck 0.10718 5.08329 3.00033
upperneck 2.88714 6.87353 -4.35217
head 1.15431 3.41921 -1.78867
rclavicle -7.51406e-014 -1.59028e-015
rhumerus -38.3571 14.4578 -81.5608
rradius 45.1672
rwrist -0.535933
rhand -8.89058 -14.9484
rfingers 7.12502
rthumb 17.0518 -44.22
lclavicle -7.51406e-014 -1.59028e-015
lhumerus -39.5715 3.62314 76.7039
lradius 57.2485
lwrist 3.73957
lhand -1.41225 10.9928
lfingers 7.12502
lthumb 24.237 39.4811
rfemur -22.2328 -4.39601 23.1409
rtibia 40.8639
rfoot -18.8741 1.56495
rtoes -18.1255
lfemur -9.6628 2.7324 -16.9574
ltibia 25.5587
lfoot -25.6106 10.4235
ltoes -1.08154
218
root -31.69 17.8447 -4.6274 -11.7619 71.116 -23.8767
lowerback 17.3475 -0.505034 -4.52654
upperback 5.13342 -1.06537 2.70448
thorax -4.05972 -0.439587 5.67106
lowerneck 0.109801 5.12353 2.99173
upperneck 2.78752 6.92517 -4.40021
head 1.12614 3.44494 -1.8029
rclavicle -1.19271e-015 -4.6118e-014
rhumerus -38.3976 14.4893 -81.531
rradius 45.1049
rwrist -0.417454
rhand -8.87717 -14.9273
rfingers 7.12502
rthumb 17.0647 -44.1978
lclavicle -1.19271e-015 -4.6118e-014
lhumerus -39.5433 3.73658 76.5654
lradius 57.5159
lwrist 3.81081
lhand -1.4672 11.0603
lfingers 7.12502
lthumb 24.1843 39.5556
rfemur -23.0536 -3.94755 23.321
rtibia 40.2941
rfoot -18.9557 1.61781
rtoes -18.0235
lfemur -9.28424 2.9895 -17.0219
ltibia 25.2706
lfoot -25.6359 10.1198
ltoes -1.29874
219
root -31.5943 17.8469 -4.61463 -11.5552 71.1195 -23.7897
lowerback 17.4055 -0.604936 -4.63063
upperback 5.11954 -1.21274 2.76507
thorax -4.08131 -0.511374 5.82828
lowerneck 0.122959 5.15595 2.99814
upperneck 2.67546 6.96635 -4.45986
head 1.09298 3.46575 -1.82411
rclavicle -7.55382e-015 -2.14687e-014
rhumerus -38.4476 14.506 -81.5078
rradius 45.0365
rwrist -0.273282
rhand -8.86302 -14.9005
rfingers 7.12502
rthumb 17.0783 -44.1698
lclavicle -7.55382e-015 -2.14687e-014
lhumerus -39.5154 3.8415 76.4229
lradius 57.7913
lwrist 3.8926
lhand -1.51554 11.1159
lfingers 7.12502
lthumb 24.138 39.6173
rfemur -23.825 -3.49874 23.4969
rtibia 39.6269
rfoot -19.0281 1.6311
rtoes -17.9317
lfemur -8.92739 3.26713 -17.0804
ltibia 24.9855
lfoot -25.6078 9.75713
ltoes -1.54908
